<?xml version="1.0" standalone="no"?>
<!DOCTYPE svg PUBLIC "-//W3C//DTD SVG 20010904//EN"
 "http://www.w3.org/TR/2001/REC-SVG-20010904/DTD/svg10.dtd">
<svg version="1.0" xmlns="http://www.w3.org/2000/svg"
 width="500.000000pt" height="500.000000pt" viewBox="0 0 500.000000 500.000000"
 preserveAspectRatio="xMidYMid meet">
<metadata>
Created by potrace 1.14, written by Peter Selinger 2001-2017
</metadata>
<g transform="translate(0.000000,500.000000) scale(0.100000,-0.100000)"
fill="#000000" stroke="none">
<path d="M2230 4695 c-383 -48 -745 -194 -1058 -427 -127 -94 -350 -317 -443
-443 -239 -322 -384 -690 -430 -1089 -17 -143 -6 -450 20 -601 85 -482 302
-893 647 -1225 378 -364 843 -573 1357 -611 733 -54 1412 235 1884 801 284
342 463 789 494 1238 44 656 -186 1270 -651 1732 -355 353 -817 574 -1312 629
-127 14 -376 12 -508 -4z m561 -40 c540 -81 1003 -332 1347 -730 679 -785 713
-1923 83 -2750 -285 -374 -726 -666 -1181 -780 -189 -48 -331 -65 -539 -65
-366 0 -668 71 -981 230 -657 335 -1097 968 -1181 1699 -19 170 -6 507 25 660
157 766 694 1382 1426 1635 117 41 355 97 460 109 100 11 447 6 541 -8z"/>
<path d="M2353 4233 c-8 -6 -9 -23 -1 -61 5 -30 8 -63 6 -73 -3 -20 -4 -20
-23 -2 -11 10 -46 40 -77 66 -54 46 -60 48 -98 42 -22 -4 -40 -12 -40 -18 0
-7 10 -79 22 -160 l22 -148 40 7 c23 3 43 8 45 10 2 2 0 35 -6 74 -5 38 -6 70
-2 70 4 0 39 -27 77 -60 56 -48 77 -60 103 -60 60 0 60 1 36 165 l-22 150 -35
3 c-19 1 -40 -1 -47 -5z"/>
<path d="M2756 4219 c-12 -59 -48 -291 -44 -293 3 -4 250 -46 267 -46 6 0 11
15 11 34 0 37 -3 39 -75 50 -92 15 -95 16 -95 43 0 25 1 25 51 19 29 -4 65
-10 80 -13 24 -5 29 -2 29 15 0 11 2 27 6 35 4 11 -12 17 -70 26 -65 11 -76
15 -76 32 0 28 16 31 102 16 75 -14 77 -13 82 7 14 51 12 52 -101 70 -60 9
-120 20 -135 23 -23 4 -28 1 -32 -18z"/>
<path d="M1686 4035 c-71 -35 -130 -66 -132 -68 -6 -6 20 -67 29 -67 4 0 26 9
48 21 23 11 42 19 44 17 2 -2 26 -49 55 -106 56 -111 59 -113 117 -75 26 17
23 27 -40 146 -46 87 -47 81 22 119 30 16 30 17 15 47 -9 17 -19 31 -22 31 -4
0 -65 -30 -136 -65z"/>
<path d="M3296 4029 c-43 -51 -29 -99 48 -163 52 -42 59 -66 21 -66 -29 0 -69
35 -62 54 3 8 -12 21 -38 34 -38 18 -44 19 -49 6 -29 -76 77 -174 186 -174 39
0 50 5 72 31 44 51 36 84 -34 149 -62 57 -76 90 -40 90 23 0 60 -33 60 -53 0
-7 16 -21 37 -31 29 -14 38 -15 44 -4 37 58 -73 158 -173 158 -39 0 -50 -4
-72 -31z"/>
<path d="M1262 3750 l-32 -30 97 -114 c54 -63 105 -115 114 -115 8 -1 28 12
44 29 l28 29 -102 116 c-56 63 -105 115 -109 115 -4 0 -22 -14 -40 -30z"/>
<path d="M3766 3724 c-36 -36 -33 -74 9 -144 40 -65 44 -90 16 -90 -27 0 -62
47 -55 74 3 15 -4 30 -26 51 -31 29 -32 29 -46 11 -37 -52 2 -141 88 -198 56
-38 92 -36 135 7 30 30 35 40 29 68 -3 17 -19 51 -35 73 -35 50 -45 80 -31 89
20 12 59 -23 62 -56 2 -21 13 -39 31 -53 29 -21 29 -21 43 -1 30 40 -5 112
-79 166 -53 38 -104 39 -141 3z"/>
<path d="M2301 3669 c-167 -20 -278 -65 -340 -135 -52 -59 -71 -118 -71 -219
0 -118 35 -235 100 -332 l21 -31 -48 -33 c-177 -120 -328 -318 -375 -493 l-12
-46 -76 0 -75 0 0 193 c0 222 -10 267 -73 315 -34 26 -41 27 -170 30 -156 4
-170 2 -216 -38 -65 -58 -65 -54 -65 -590 l1 -482 25 -24 c42 -39 95 -49 263
-49 176 0 206 9 236 74 17 36 17 73 -2 329 l-7 82 67 0 66 0 0 -54 c0 -222 86
-448 224 -587 206 -207 559 -296 941 -237 420 65 701 356 731 758 l7 90 70 0
70 0 -9 -112 c-25 -339 -14 -357 232 -359 149 -1 201 8 255 44 l34 23 3 492
c2 475 1 494 -18 530 -47 89 -80 104 -228 101 -143 -3 -180 -12 -219 -53 -50
-53 -58 -98 -58 -309 l0 -187 -77 0 -76 0 -28 83 c-15 45 -37 103 -50 129 -56
111 -199 269 -310 343 l-53 35 35 58 c69 114 103 282 79 392 -12 55 -51 125
-87 155 -47 40 -143 83 -224 101 -84 18 -389 27 -493 13z m141 -246 c34 -33
79 -35 111 -5 29 27 74 28 101 3 25 -23 48 -27 99 -16 35 7 42 4 72 -25 48
-46 62 -117 41 -200 -15 -57 -51 -140 -61 -140 -3 0 -40 10 -82 22 -114 33
-334 32 -447 -1 -76 -22 -80 -22 -93 -5 -28 38 -55 130 -55 189 0 72 10 100
48 138 25 25 34 28 64 22 54 -10 82 -7 104 14 12 10 30 21 41 24 11 3 22 5 24
6 3 0 17 -11 33 -26z m-1144 -580 c56 -42 94 -172 58 -202 -24 -20 -45 -1 -61
54 -15 53 -51 95 -81 95 -8 0 -14 5 -14 10 0 6 -7 10 -15 10 -22 0 -30 27 -14
46 17 21 92 13 127 -13z m2546 -6 c12 -20 -2 -35 -74 -80 -27 -17 -39 -35 -54
-80 -20 -62 -45 -76 -67 -35 -16 30 5 120 39 159 47 57 132 76 156 36z m-809
-36 c91 -41 231 -242 268 -384 l15 -58 -151 3 -152 3 -27 50 c-46 85 -108 254
-108 297 0 96 62 132 155 89z m240 -611 c-8 -13 -65 -13 -85 0 -11 7 0 10 38
10 33 0 51 -4 47 -10z"/>
<path d="M1008 3482 c-26 -30 -128 -182 -128 -190 0 -7 198 -147 247 -176 8
-4 22 9 39 34 23 35 25 43 13 51 -8 5 -29 19 -46 30 -18 11 -33 23 -33 25 0 2
16 28 35 56 34 48 35 52 19 69 -26 29 -41 23 -76 -31 -36 -54 -43 -58 -69 -34
-17 16 -16 19 26 80 l44 63 -28 20 c-27 19 -29 20 -43 3z"/>
<path d="M657 2378 c-21 -17 -38 -63 -30 -85 13 -37 46 -63 80 -63 l34 0 -2
80 -3 80 -31 0 c-17 0 -39 -6 -48 -12z"/>
<path d="M4272 2290 c3 -80 3 -80 30 -80 44 0 83 51 72 95 -8 32 -49 65 -81
65 -23 0 -23 -2 -21 -80z"/>
<path d="M1759 1033 c-6 -16 -26 -69 -44 -119 l-34 -92 86 -31 c100 -36 126
-38 153 -11 22 22 26 51 10 80 -8 15 -6 20 8 24 11 4 25 18 33 32 24 45 -3 74
-101 111 -47 18 -88 32 -93 33 -4 0 -12 -12 -18 -27z m132 -75 c10 -16 0 -38
-18 -38 -12 0 -49 15 -61 25 -1 1 1 10 4 20 5 13 14 16 37 11 17 -4 34 -11 38
-18z m-52 -79 c32 -11 39 -27 20 -46 -8 -8 -20 -8 -43 -1 -40 14 -39 13 -31
37 7 24 11 25 54 10z"/>
<path d="M3117 1026 c-46 -17 -64 -32 -83 -67 -40 -79 23 -199 106 -199 29 0
91 27 116 51 13 12 24 16 28 11 3 -6 15 -8 25 -5 19 5 19 6 0 61 -11 31 -23
60 -28 65 -5 5 -34 1 -65 -9 -47 -15 -56 -21 -54 -38 2 -17 9 -21 36 -18 36 2
41 -7 14 -31 -46 -42 -105 -6 -106 65 -1 37 3 44 27 56 22 11 35 11 56 2 30
-12 81 1 81 20 0 16 -62 50 -90 50 -14 -1 -42 -7 -63 -14z"/>
<path d="M2176 923 c-2 -10 -10 -65 -16 -122 -10 -82 -10 -105 0 -111 7 -4 44
-11 84 -14 39 -4 81 -10 94 -13 21 -5 23 -3 20 28 -3 33 -4 34 -62 41 -32 4
-60 9 -61 10 -1 2 2 40 8 85 5 45 7 89 4 97 -9 23 -64 21 -71 -1z"/>
<path d="M2635 916 c-46 -21 -67 -51 -72 -103 -8 -88 43 -146 127 -146 124 0
182 90 129 199 -14 29 -29 46 -51 53 -41 15 -96 13 -133 -3z m105 -61 c6 -8
14 -32 17 -53 8 -63 -44 -103 -91 -69 -26 19 -33 98 -11 120 20 21 68 22 85 2z"/>
</g>
</svg>
